Patient4_TMGait_0pt4_03_right_36_GRF.mot
version=1
nRows=65
nColumns=19
inDegrees=no
endheader
time	F1x	F1y	F1z	M1x	M1y	M1z	F2x	F2y	F2z	M2x	M2y	M2z	EC1x	EC1y	EC1z	EC2x	EC2y	EC2z
46.99	-11.7545	771.3305	78.4235	-240.8566	-87.1521	849.1688	-9.6115	-11.9849	7.7679	-4.3781	-4.2752	-14.9581	-0.0592	0.0182	-0.0073	-0.0462	0.0165	0.9585
47.0037	-10.0327	759.4969	75.8082	-237.2521	-83.2882	833.8613	-6.5287	-7.3746	5.2028	-2.7088	-2.7819	-9.2297	-0.0592	0.0182	-0.0073	-0.0462	0.0165	0.9585
47.0174	-7.84	747.5619	72.8494	-233.7044	-78.8676	817.7717	-3.9565	-3.5328	3.0004	-1.2998	-1.4897	-4.4398	-0.0592	0.0182	-0.0073	-0.0462	0.0165	0.9585
47.0311	-5.2431	736.7658	69.7741	-230.6091	-74.173	802.3422	-2.0272	-0.64286	1.3034	-0.22563	-0.48593	-0.82523	-0.0592	0.0182	-0.0073	-0.0462	0.0165	0.9585
47.0449	-2.3422	728.1673	66.7877	-228.2894	-69.4721	788.8479	-0.72889	1.3434	0.12215	0.52251	0.22327	1.6655	-0.0592	0.0182	-0.0073	-0.0462	0.0165	0.9585
47.0586	0.7577	722.5309	64.0398	-226.9692	-64.9705	778.2256	0.047984	2.5745	-0.61567	0.99192	0.67959	3.2071	-0.0592	0.0182	-0.0073	-0.0462	0.0165	0.9585
47.0723	3.9616	720.2858	61.6358	-226.7649	-60.8135	771.0367	0.41942	3.2104	-1.0105	1.2389	0.94395	4.0057	-0.0592	0.0182	-0.0073	-0.0462	0.0165	0.9585
47.086	7.2028	721.5115	59.6235	-227.6821	-57.0727	767.4515	0.49974	3.3902	-1.1714	1.3118	1.0861	4.2404	-0.0592	0.0182	-0.0073	-0.0462	0.0165	0.9585
47.0997	10.4435	725.9588	58.0269	-229.6174	-53.7823	767.2691	0.39668	3.2243	-1.1912	1.2478	1.1625	4.0446	-0.0592	0.0182	-0.0073	-0.0462	0.0165	0.9585
47.1134	13.6453	733.1137	56.8419	-232.3766	-50.9473	769.9963	0.17745	2.7768	-1.1533	1.068	1.2289	3.5044	-0.0592	0.0182	-0.0073	-0.0462	0.0165	0.9585
47.1271	16.7471	742.2486	56.0534	-235.6927	-48.57	774.9199	-0.10069	2.0494	-1.1114	0.77376	1.317	2.6207	-0.0592	0.0182	-0.0073	-0.0462	0.0165	0.9585
47.1409	19.6726	752.471	55.6241	-239.2445	-46.6399	781.1653	-0.39269	1.0299	-1.1038	0.35881	1.4466	1.3839	-0.0592	0.0182	-0.0073	-0.0462	0.0165	0.9585
47.1546	22.3488	762.7967	55.5059	-242.6855	-45.1354	787.7647	-0.64223	-0.3013	-1.137	-0.18627	1.6012	-0.23263	-0.0592	0.0182	-0.0073	-0.0462	0.0165	0.9585
47.1683	24.7142	772.2111	55.6368	-245.6663	-44.0154	793.7213	-0.78117	-1.9357	-1.1951	-0.85753	1.7318	-2.22	-0.0592	0.0182	-0.0073	-0.0462	0.0165	0.9585
47.182	26.7446	779.6921	55.9624	-247.8437	-43.2389	798.0279	-0.71962	-3.7728	-1.2341	-1.6118	1.7493	-4.4509	-0.0592	0.0182	-0.0073	-0.0462	0.0165	0.9585
47.1957	28.4521	784.3031	56.4314	-248.9146	-42.7578	799.7584	-0.32654	-5.5591	-1.1912	-2.3426	1.5266	-6.621	-0.0592	0.0182	-0.0073	-0.0462	0.0165	0.9585
47.2094	29.874	785.3895	57.0097	-248.6757	-42.5318	798.267	0.54312	-6.8203	-0.98141	-2.8536	0.90519	-8.1647	-0.0592	0.0182	-0.0073	-0.0462	0.0165	0.9585
47.2231	31.0787	782.7605	57.6686	-247.08	-42.5188	793.3646	2.0468	-6.8171	-0.49532	-2.8362	-0.3032	-8.2021	-0.0592	0.0182	-0.0073	-0.0462	0.0165	0.9585
47.2369	32.1591	776.7074	58.4049	-244.2384	-42.6965	785.3359	4.3205	-4.4812	0.38611	-1.8486	-2.2871	-5.4478	-0.0592	0.0182	-0.0073	-0.0462	0.0165	0.9585
47.2506	33.2081	767.8621	59.1997	-240.3735	-43.0301	774.7895	7.4164	1.5826	1.7818	0.68129	-5.1983	1.7881	-0.0592	0.0182	-0.0073	-0.0462	0.0165	0.9585
47.2643	34.289	756.9895	60.0006	-235.7557	-43.4563	762.4632	11.2168	12.975	3.7738	5.4099	-9.0783	15.4508	-0.0592	0.0182	-0.0073	-0.0462	0.0165	0.9585
47.278	35.4273	744.7178	60.709	-230.6189	-43.8715	748.9674	15.3172	31.2855	6.3648	12.9862	-13.7585	37.4791	-0.0592	0.0182	-0.0073	-0.0462	0.0165	0.9585
47.2917	36.5682	731.2413	61.1984	-225.065	-44.1603	734.5014	18.9074	57.6571	9.3882	23.8718	-18.6979	69.2704	-0.0592	0.0182	-0.0073	-0.0462	0.0165	0.9585
47.3054	37.5675	716.1916	61.3264	-219.0216	-44.2152	718.7236	20.6097	92.1051	12.4274	38.0608	-22.824	110.8458	-0.0592	0.0182	-0.0073	-0.0462	0.0165	0.9585
47.3191	38.2395	698.7444	60.9316	-212.277	-43.9183	700.8342	18.7575	132.9296	14.6732	54.8209	-24.5052	160.2036	-0.0592	0.0182	-0.0073	-0.0462	0.0165	0.9585
47.3329	38.425	677.9853	59.8517	-204.5989	-43.1453	679.9183	12.7869	176.8679	15.1767	72.7338	-22.3908	213.5351	-0.0592	0.0182	-0.0073	-0.0462	0.0165	0.9585
47.3466	38.0779	653.3055	57.9783	-195.8593	-41.7921	655.3123	3.9157	219.2022	13.353	89.8217	-16.3696	265.1769	-0.0592	0.0182	-0.0073	-0.0462	0.0165	0.9585
47.3603	37.3222	624.5584	55.3262	-186.0742	-39.8217	626.7633	-5.665	256.1864	9.4403	104.5581	-7.6322	310.4249	-0.0592	0.0182	-0.0073	-0.0462	0.0165	0.9585
47.374	36.3731	591.9225	51.9854	-175.3511	-37.2379	594.3399	-14.6127	287.1865	4.0131	116.7014	2.5776	348.3613	-0.0592	0.0182	-0.0073	-0.0462	0.0165	0.9585
47.3877	35.4156	555.6191	48.0643	-163.7896	-34.0729	558.1728	-22.2789	313.718	-2.0007	126.9264	12.9315	380.7202	-0.0592	0.0182	-0.0073	-0.0462	0.0165	0.9585
47.4014	34.5101	515.8049	43.604	-151.4456	-30.339	518.3891	-28.4989	337.7991	-7.8528	136.1311	22.4731	409.8772	-0.0592	0.0182	-0.0073	-0.0462	0.0165	0.9585
47.4151	33.598	472.7306	38.5846	-138.3812	-26.0344	475.2573	-33.288	361.3997	-12.9843	145.1811	30.5645	438.1023	-0.0592	0.0182	-0.0073	-0.0462	0.0165	0.9585
47.4289	32.5159	426.8391	33.0422	-124.6962	-21.2448	429.2625	-36.6767	386.3327	-17.343	154.8448	37.1467	467.4382	-0.0592	0.0182	-0.0073	-0.0462	0.0165	0.9585
47.4426	31.0272	378.8128	27.144	-110.5446	-16.1991	381.1338	-38.7695	414.2654	-21.1023	165.7977	42.4668	499.7744	-0.0592	0.0182	-0.0073	-0.0462	0.0165	0.9585
47.4563	28.9099	329.5473	21.2241	-96.1325	-11.2804	331.7932	-39.7378	446.4317	-24.6173	178.5135	47.0043	536.5199	-0.0592	0.0182	-0.0073	-0.0462	0.0165	0.9585
47.47	25.9908	280.1634	15.6808	-81.7322	-6.9216	282.3787	-39.8533	483.2268	-28.3046	193.1103	51.3423	578.1368	-0.0592	0.0182	-0.0073	-0.0462	0.0165	0.9585
47.4837	22.2086	232.0009	10.8844	-67.6932	-3.5044	234.2201	-39.4715	524.1531	-32.4484	209.3413	55.9404	624.0583	-0.0592	0.0182	-0.0073	-0.0462	0.0165	0.9585
47.4974	17.6824	186.5649	7.0502	-54.4345	-1.2151	188.7847	-38.9207	568.1202	-37.1973	226.7223	61.0852	673.0339	-0.0592	0.0182	-0.0073	-0.0462	0.0165	0.9585
47.5111	12.7378	145.2968	4.2363	-42.3757	-0.02662	147.4753	-38.4422	613.6691	-42.4698	244.6322	66.7769	723.4105	-0.0592	0.0182	-0.0073	-0.0462	0.0165	0.9585
47.5249	7.8524	109.2219	2.3747	-31.8249	0.26085	111.2852	-38.1483	658.9665	-48.0787	262.3084	72.8371	773.1216	-0.0592	0.0182	-0.0073	-0.0462	0.0165	0.9585
47.5386	3.4953	78.794	1.2845	-22.9261	-0.041949	80.6617	-38.0235	701.8991	-53.6677	278.8917	78.8632	819.7849	-0.0592	0.0182	-0.0073	-0.0462	0.0165	0.9585
47.5523	0.016832	53.9701	0.72964	-15.6757	-0.59957	55.5822	-38.0091	740.3052	-58.8966	293.5131	84.4497	860.999	-0.0592	0.0182	-0.0073	-0.0462	0.0165	0.9585
47.566	-2.373	34.4158	0.48536	-9.9789	-1.1256	35.7461	-38.017	772.1912	-63.446	305.381	89.2154	894.5772	-0.0592	0.0182	-0.0073	-0.0462	0.0165	0.9585
47.5797	-3.6052	19.672	0.37613	-5.6984	-1.4257	20.7287	-37.9619	795.9087	-67.1302	313.8518	92.9256	918.7497	-0.0592	0.0182	-0.0073	-0.0462	0.0165	0.9585
47.5934	-3.7828	9.2195	0.29965	-2.6765	-1.4341	10.018	-37.7713	810.368	-69.8457	318.5175	95.4434	932.3855	-0.0592	0.0182	-0.0073	-0.0462	0.0165	0.9585
47.6071	-3.3016	2.4719	0.24106	-0.73545	-1.2556	3.0458	-37.3692	815.2411	-71.5818	319.2846	96.7343	935.1959	-0.0592	0.0182	-0.0073	-0.0462	0.0165	0.9585
47.6209	-2.538	-1.3373	0.20017	0.35051	-1.004	-0.94251	-36.6804	811.1097	-72.3615	316.43	96.8141	927.8887	-0.0592	0.0182	-0.0073	-0.0462	0.0165	0.9585
47.6346	-1.7375	-3.0237	0.17905	0.81954	-0.75535	-2.7552	-35.6414	799.485	-72.2452	310.6059	95.7526	912.1829	-0.0592	0.0182	-0.0073	-0.0462	0.0165	0.9585
47.6483	-1.0303	-3.3186	0.17007	0.88591	-0.54058	-3.1357	-34.2295	782.6357	-71.3731	302.7592	93.7187	890.6148	-0.0592	0.0182	-0.0073	-0.0462	0.0165	0.9585
47.662	-0.47506	-2.816	0.16796	0.72372	-0.37137	-2.6823	-32.4619	763.2063	-69.9693	293.9764	90.9831	866.108	-0.0592	0.0182	-0.0073	-0.0462	0.0165	0.9585
47.6757	-0.083475	-1.9425	0.16627	0.45645	-0.24469	-1.8242	-30.3904	743.8509	-68.2997	285.3352	87.8716	841.5658	-0.0592	0.0182	-0.0073	-0.0462	0.0165	0.9585
47.6894	0.16389	-0.97863	0.17138	0.16522	-0.1641	-0.85005	-28.1005	726.9453	-66.5885	277.7913	84.6755	819.5745	-0.0592	0.0182	-0.0073	-0.0462	0.0165	0.9585
47.7031	0.29296	-0.087104	0.179	-0.10156	-0.12178	0.070326	-25.6731	714.3339	-65.0135	272.083	81.6285	802.129	-0.0592	0.0182	-0.0073	-0.0462	0.0165	0.9585
47.7169	0.33219	0.64464	0.18755	-0.3166	-0.11148	0.83777	-23.1737	707.199	-63.6588	268.6822	78.8552	790.4874	-0.0592	0.0182	-0.0073	-0.0462	0.0165	0.9585
47.7306	0.30425	1.1748	0.19336	-0.46632	-0.12585	1.3996	-20.633	706.0139	-62.5486	267.7809	76.3962	785.1249	-0.0592	0.0182	-0.0073	-0.0462	0.0165	0.9585
47.7443	0.22128	1.4822	0.19787	-0.54308	-0.164	1.7239	-18.0492	710.5811	-61.6313	269.3074	74.1954	785.7865	-0.0592	0.0182	-0.0073	-0.0462	0.0165	0.9585
47.758	0.096688	1.5399	0.20128	-0.53884	-0.22339	1.7662	-15.3974	720.0814	-60.8413	272.9445	72.1696	791.5553	-0.0592	0.0182	-0.0073	-0.0462	0.0165	0.9585
47.7717	-0.0661	1.3203	0.21352	-0.44513	-0.31196	1.4917	-12.6409	733.1308	-60.0871	278.1512	70.2032	800.9222	-0.0592	0.0182	-0.0073	-0.0462	0.0165	0.9585
47.7854	-0.26198	0.78242	0.24029	-0.24791	-0.43232	0.85216	-9.7467	747.8912	-59.3005	284.2032	68.2004	811.9183	-0.0592	0.0182	-0.0073	-0.0462	0.0165	0.9585
47.7991	-0.4779	-0.12335	0.28076	0.071708	-0.57872	-0.21229	-6.6695	762.2863	-58.4317	290.2775	66.0751	822.3411	-0.0592	0.0182	-0.0073	-0.0462	0.0165	0.9585
47.8129	-0.69241	-1.4238	0.32811	0.52503	-0.73319	-1.7366	-3.3731	774.2782	-57.4778	295.5599	63.7886	830.0595	-0.0592	0.0182	-0.0073	-0.0462	0.0165	0.9585
47.8266	-0.85313	-3.0948	0.36716	1.1034	-0.85509	-3.7002	0.13641	782.2105	-56.4362	299.3823	61.3217	833.3778	-0.0592	0.0182	-0.0073	-0.0462	0.0165	0.9585
47.8403	-0.88596	-5.0138	0.37255	1.7637	-0.88156	-5.9602	3.8108	785.1006	-55.3223	301.3335	58.6921	831.3384	-0.0592	0.0182	-0.0073	-0.0462	0.0165	0.9585
47.854	-0.67881	-6.9002	0.30534	2.4068	-0.72336	-8.1877	7.5572	782.7664	-54.1767	301.3068	55.9655	823.8392	-0.0592	0.0182	-0.0073	-0.0462	0.0165	0.9585
47.8677	-0.082861	-8.2403	0.12695	2.8534	-0.2814	-9.7786	11.2451	775.7722	-53.0843	299.4823	53.2718	811.5673	-0.0592	0.0182	-0.0073	-0.0462	0.0165	0.9585
